<svg xmlns="http://www.w3.org/2000/svg" xmlns:xlink="http://www.w3.org/1999/xlink" id="Layer_1" x="0" y="0" version="1.1" viewBox="0 0 512 512" style="enable-background:new 0 0 512 512" xml:space="preserve"><path style="fill:#41479b" d="M0,385.379c0,21.177,17.167,38.345,38.345,38.345h435.309c21.177,0,38.345-17.167,38.345-38.345V256 H0V385.379z"/><path style="fill:#ff4b55" d="M473.654,88.276H38.345C17.167,88.276,0,105.444,0,126.621V256h511.999V126.621 C511.999,105.444,494.831,88.276,473.654,88.276z"/><polygon style="fill:#f5f5f5" points="255.999 88.276 0 256 255.999 423.724 512 256"/><path style="fill:#ffe15a" d="M258.647,158.704l21.191,60.962l64.526,1.315c2.656,0.054,3.753,3.43,1.636,5.035l-51.431,38.991 l18.689,61.775c0.769,2.543-2.102,4.63-4.284,3.112l-52.975-36.865l-52.976,36.864c-2.182,1.517-5.053-0.568-4.284-3.112 l18.689-61.775l-51.431-38.991c-2.118-1.606-1.021-4.981,1.636-5.035l64.526-1.315l21.191-60.962 C254.225,156.193,257.775,156.193,258.647,158.704z"/></svg>